<?xml version="1.0" encoding="UTF-8" standalone="no"?>
<!DOCTYPE svg PUBLIC "-//W3C//DTD SVG 1.1//EN"
 "http://www.w3.org/Graphics/SVG/1.1/DTD/svg11.dtd">
<!-- Generated by graphviz version 2.43.0 (0)
 -->
<!-- Title: G Pages: 1 -->
<svg width="1328pt" height="545pt"
 viewBox="0.00 0.00 1328.00 545.00" xmlns="http://www.w3.org/2000/svg" xmlns:xlink="http://www.w3.org/1999/xlink">
<g id="graph0" class="graph" transform="scale(1 1) rotate(0) translate(4 541)">
<title>G</title>
<polygon fill="white" stroke="transparent" points="-4,4 -4,-541 1324,-541 1324,4 -4,4"/>
<g id="clust1" class="cluster">
<title>cluster_2128128946</title>
<polygon fill="lightcoral" stroke="lightcoral" points="521,-363 521,-529 863,-529 863,-363 521,-363"/>
<text text-anchor="middle" x="692" y="-392" font-family="Times,serif" font-size="10.00">Block ID: 0</text>
<text text-anchor="middle" x="692" y="-381" font-family="Times,serif" font-size="10.00">Hits: 0</text>
<text text-anchor="middle" x="692" y="-370" font-family="Times,serif" font-size="10.00">Branches: 0/2</text>
</g>
<g id="clust2" class="cluster">
<title>cluster_1020097968</title>
<polygon fill="lightcoral" stroke="lightcoral" points="772,-241 772,-334 870,-334 870,-241 772,-241"/>
<text text-anchor="middle" x="821" y="-270" font-family="Times,serif" font-size="10.00">Block ID: 8</text>
<text text-anchor="middle" x="821" y="-259" font-family="Times,serif" font-size="10.00">Hits: 0</text>
<text text-anchor="middle" x="821" y="-248" font-family="Times,serif" font-size="10.00">Branches: 0/2</text>
</g>
<g id="clust3" class="cluster">
<title>cluster_1484752818</title>
<polygon fill="lightcoral" stroke="lightcoral" points="1022,-119 1022,-212 1118,-212 1118,-119 1022,-119"/>
<text text-anchor="middle" x="1070" y="-148" font-family="Times,serif" font-size="10.00">Block ID: 12</text>
<text text-anchor="middle" x="1070" y="-137" font-family="Times,serif" font-size="10.00">Hits: 0</text>
<text text-anchor="middle" x="1070" y="-126" font-family="Times,serif" font-size="10.00">Branches: 0/2</text>
</g>
<g id="clust4" class="cluster">
<title>cluster_640713036</title>
<polygon fill="lightcoral" stroke="lightcoral" points="1156,-8 1156,-90 1312,-90 1312,-8 1156,-8"/>
<text text-anchor="middle" x="1234" y="-26" font-family="Times,serif" font-size="10.00">Block ID: 14</text>
<text text-anchor="middle" x="1234" y="-15" font-family="Times,serif" font-size="10.00">Hits: 0</text>
</g>
<g id="clust5" class="cluster">
<title>cluster_856663626</title>
<polygon fill="lightcoral" stroke="lightcoral" points="992,-8 992,-90 1148,-90 1148,-8 992,-8"/>
<text text-anchor="middle" x="1070" y="-26" font-family="Times,serif" font-size="10.00">Block ID: 13</text>
<text text-anchor="middle" x="1070" y="-15" font-family="Times,serif" font-size="10.00">Hits: 0</text>
</g>
<g id="clust6" class="cluster">
<title>cluster_152143107</title>
<polygon fill="lightcoral" stroke="lightcoral" points="773,-119 773,-212 869,-212 869,-119 773,-119"/>
<text text-anchor="middle" x="821" y="-148" font-family="Times,serif" font-size="10.00">Block ID: 9</text>
<text text-anchor="middle" x="821" y="-137" font-family="Times,serif" font-size="10.00">Hits: 0</text>
<text text-anchor="middle" x="821" y="-126" font-family="Times,serif" font-size="10.00">Branches: 0/2</text>
</g>
<g id="clust7" class="cluster">
<title>cluster_1410116756</title>
<polygon fill="lightcoral" stroke="lightcoral" points="828,-8 828,-90 984,-90 984,-8 828,-8"/>
<text text-anchor="middle" x="906" y="-26" font-family="Times,serif" font-size="10.00">Block ID: 11</text>
<text text-anchor="middle" x="906" y="-15" font-family="Times,serif" font-size="10.00">Hits: 0</text>
</g>
<g id="clust8" class="cluster">
<title>cluster_109545401</title>
<polygon fill="lightcoral" stroke="lightcoral" points="664,-8 664,-90 820,-90 820,-8 664,-8"/>
<text text-anchor="middle" x="742" y="-26" font-family="Times,serif" font-size="10.00">Block ID: 10</text>
<text text-anchor="middle" x="742" y="-15" font-family="Times,serif" font-size="10.00">Hits: 0</text>
</g>
<g id="clust9" class="cluster">
<title>cluster_542142556</title>
<polygon fill="lightcoral" stroke="lightcoral" points="444,-241 444,-334 542,-334 542,-241 444,-241"/>
<text text-anchor="middle" x="493" y="-270" font-family="Times,serif" font-size="10.00">Block ID: 1</text>
<text text-anchor="middle" x="493" y="-259" font-family="Times,serif" font-size="10.00">Hits: 0</text>
<text text-anchor="middle" x="493" y="-248" font-family="Times,serif" font-size="10.00">Branches: 0/2</text>
</g>
<g id="clust10" class="cluster">
<title>cluster_1572857624</title>
<polygon fill="lightcoral" stroke="lightcoral" points="445,-119 445,-212 541,-212 541,-119 445,-119"/>
<text text-anchor="middle" x="493" y="-148" font-family="Times,serif" font-size="10.00">Block ID: 12</text>
<text text-anchor="middle" x="493" y="-137" font-family="Times,serif" font-size="10.00">Hits: 0</text>
<text text-anchor="middle" x="493" y="-126" font-family="Times,serif" font-size="10.00">Branches: 0/2</text>
</g>
<g id="clust11" class="cluster">
<title>cluster_527317360</title>
<polygon fill="lightcoral" stroke="lightcoral" points="500,-8 500,-90 656,-90 656,-8 500,-8"/>
<text text-anchor="middle" x="578" y="-26" font-family="Times,serif" font-size="10.00">Block ID: 7</text>
<text text-anchor="middle" x="578" y="-15" font-family="Times,serif" font-size="10.00">Hits: 0</text>
</g>
<g id="clust12" class="cluster">
<title>cluster_1956130340</title>
<polygon fill="lightcoral" stroke="lightcoral" points="336,-8 336,-90 492,-90 492,-8 336,-8"/>
<text text-anchor="middle" x="414" y="-26" font-family="Times,serif" font-size="10.00">Block ID: 6</text>
<text text-anchor="middle" x="414" y="-15" font-family="Times,serif" font-size="10.00">Hits: 0</text>
</g>
<g id="clust13" class="cluster">
<title>cluster_1527153438</title>
<polygon fill="lightcoral" stroke="lightcoral" points="202,-119 202,-212 298,-212 298,-119 202,-119"/>
<text text-anchor="middle" x="250" y="-148" font-family="Times,serif" font-size="10.00">Block ID: 9</text>
<text text-anchor="middle" x="250" y="-137" font-family="Times,serif" font-size="10.00">Hits: 0</text>
<text text-anchor="middle" x="250" y="-126" font-family="Times,serif" font-size="10.00">Branches: 0/2</text>
</g>
<g id="clust14" class="cluster">
<title>cluster_637377765</title>
<polygon fill="lightcoral" stroke="lightcoral" points="172,-8 172,-90 328,-90 328,-8 172,-8"/>
<text text-anchor="middle" x="250" y="-26" font-family="Times,serif" font-size="10.00">Block ID: 4</text>
<text text-anchor="middle" x="250" y="-15" font-family="Times,serif" font-size="10.00">Hits: 0</text>
</g>
<g id="clust15" class="cluster">
<title>cluster_1769846586</title>
<polygon fill="lightcoral" stroke="lightcoral" points="8,-8 8,-90 164,-90 164,-8 8,-8"/>
<text text-anchor="middle" x="86" y="-26" font-family="Times,serif" font-size="10.00">Block ID: 3</text>
<text text-anchor="middle" x="86" y="-15" font-family="Times,serif" font-size="10.00">Hits: 0</text>
</g>
<!-- 1656128558 -->
<g id="node1" class="node">
<title>1656128558</title>
<polygon fill="white" stroke="#7f7f7f" points="692,-521 529.12,-503 692,-485 854.88,-503 692,-521"/>
<polyline fill="none" stroke="#7f7f7f" points="541.05,-504.32 541.05,-501.68 "/>
<polyline fill="none" stroke="#7f7f7f" points="680.07,-486.32 703.93,-486.32 "/>
<polyline fill="none" stroke="#7f7f7f" points="842.95,-501.68 842.95,-504.32 "/>
<polyline fill="none" stroke="#7f7f7f" points="703.93,-519.68 680.07,-519.68 "/>
<text text-anchor="middle" x="692" y="-499.3" font-family="Times,serif" font-size="14.00">x := @parameter0: int</text>
</g>
<!-- 1411840468 -->
<g id="node2" class="node">
<title>1411840468</title>
<polygon fill="white" stroke="white" points="732.5,-448 651.5,-448 651.5,-412 732.5,-412 732.5,-448"/>
<text text-anchor="middle" x="692" y="-426.3" font-family="Times,serif" font-size="14.00">if x &lt;= 0</text>
</g>
<!-- 1656128558&#45;&gt;1411840468 -->
<g id="edge1" class="edge">
<title>1656128558&#45;&gt;1411840468</title>
<path fill="none" stroke="black" d="M692,-484.81C692,-478.27 692,-470.59 692,-463.11"/>
<polygon fill="black" stroke="black" points="697.25,-463.03 692,-448.03 686.75,-463.03 697.25,-463.03"/>
</g>
<!-- 1102229857 -->
<g id="node3" class="node">
<title>1102229857</title>
<polygon fill="white" stroke="white" points="533.5,-326 452.5,-326 452.5,-290 533.5,-290 533.5,-326"/>
<text text-anchor="middle" x="493" y="-304.3" font-family="Times,serif" font-size="14.00">if y &lt;= 0</text>
</g>
<!-- 1411840468&#45;&gt;1102229857 -->
<g id="edge2" class="edge">
<title>1411840468:s&#45;&gt;1102229857:n</title>
<path fill="none" stroke="lightcoral" d="M692,-411C692,-320.81 516.37,-410.67 495.1,-342.28"/>
<polygon fill="lightcoral" stroke="lightcoral" points="500.24,-341.15 493,-327 489.84,-342.58 500.24,-341.15"/>
<text text-anchor="middle" x="512.5" y="-347" font-family="Times,serif" font-size="10.00" fill="lightcoral">false</text>
</g>
<!-- 762758388 -->
<g id="node4" class="node">
<title>762758388</title>
<polygon fill="white" stroke="white" points="861.5,-326 780.5,-326 780.5,-290 861.5,-290 861.5,-326"/>
<text text-anchor="middle" x="821" y="-304.3" font-family="Times,serif" font-size="14.00">if y &lt;= 0</text>
</g>
<!-- 1411840468&#45;&gt;762758388 -->
<g id="edge3" class="edge">
<title>1411840468:s&#45;&gt;762758388:n</title>
<path fill="none" stroke="lightcoral" d="M692,-411C692,-348.33 800.24,-387.4 818.42,-341.82"/>
<polygon fill="lightcoral" stroke="lightcoral" points="823.6,-342.68 821,-327 813.26,-340.88 823.6,-342.68"/>
<text text-anchor="middle" x="828" y="-347" font-family="Times,serif" font-size="10.00" fill="lightcoral">true</text>
</g>
<!-- 836418994 -->
<g id="node11" class="node">
<title>836418994</title>
<polygon fill="white" stroke="white" points="290,-204 210,-204 210,-168 290,-168 290,-204"/>
<text text-anchor="middle" x="250" y="-182.3" font-family="Times,serif" font-size="14.00">if z &lt;= 0</text>
</g>
<!-- 1102229857&#45;&gt;836418994 -->
<g id="edge10" class="edge">
<title>1102229857:s&#45;&gt;836418994:n</title>
<path fill="none" stroke="lightcoral" d="M493,-289C493,-180.31 273.15,-305.77 251.68,-219.95"/>
<polygon fill="lightcoral" stroke="lightcoral" points="256.89,-219.32 250,-205 246.46,-220.49 256.89,-219.32"/>
<text text-anchor="middle" x="269.5" y="-225" font-family="Times,serif" font-size="10.00" fill="lightcoral">false</text>
</g>
<!-- 147649635 -->
<g id="node12" class="node">
<title>147649635</title>
<polygon fill="white" stroke="white" points="533,-204 453,-204 453,-168 533,-168 533,-204"/>
<text text-anchor="middle" x="493" y="-182.3" font-family="Times,serif" font-size="14.00">if z &lt;= 0</text>
</g>
<!-- 1102229857&#45;&gt;147649635 -->
<g id="edge11" class="edge">
<title>1102229857:s&#45;&gt;147649635:n</title>
<path fill="none" stroke="lightcoral" d="M493,-289C493,-257.35 493,-245.83 493,-220.31"/>
<polygon fill="lightcoral" stroke="lightcoral" points="498.25,-220 493,-205 487.75,-220 498.25,-220"/>
<text text-anchor="middle" x="504" y="-225" font-family="Times,serif" font-size="10.00" fill="lightcoral">true</text>
</g>
<!-- 1199547644 -->
<g id="node5" class="node">
<title>1199547644</title>
<polygon fill="white" stroke="white" points="861,-204 781,-204 781,-168 861,-168 861,-204"/>
<text text-anchor="middle" x="821" y="-182.3" font-family="Times,serif" font-size="14.00">if z &lt;= 0</text>
</g>
<!-- 762758388&#45;&gt;1199547644 -->
<g id="edge4" class="edge">
<title>762758388:s&#45;&gt;1199547644:n</title>
<path fill="none" stroke="lightcoral" d="M821,-289C821,-257.35 821,-245.83 821,-220.31"/>
<polygon fill="lightcoral" stroke="lightcoral" points="826.25,-220 821,-205 815.75,-220 826.25,-220"/>
<text text-anchor="middle" x="833.5" y="-225" font-family="Times,serif" font-size="10.00" fill="lightcoral">false</text>
</g>
<!-- 638211470 -->
<g id="node6" class="node">
<title>638211470</title>
<polygon fill="white" stroke="white" points="1110,-204 1030,-204 1030,-168 1110,-168 1110,-204"/>
<text text-anchor="middle" x="1070" y="-182.3" font-family="Times,serif" font-size="14.00">if z &lt;= 0</text>
</g>
<!-- 762758388&#45;&gt;638211470 -->
<g id="edge5" class="edge">
<title>762758388:s&#45;&gt;638211470:n</title>
<path fill="none" stroke="lightcoral" d="M821,-289C821,-177.79 1046.74,-308.09 1068.34,-219.99"/>
<polygon fill="lightcoral" stroke="lightcoral" points="1073.57,-220.49 1070,-205 1063.14,-219.33 1073.57,-220.49"/>
<text text-anchor="middle" x="1078" y="-225" font-family="Times,serif" font-size="10.00" fill="lightcoral">true</text>
</g>
<!-- 1758234217 -->
<g id="node9" class="node">
<title>1758234217</title>
<polygon fill="white" stroke="#7f7f7f" points="742,-82 672.29,-64 742,-46 811.71,-64 742,-82"/>
<polyline fill="none" stroke="#7f7f7f" points="683.91,-67 683.91,-61 "/>
<polyline fill="none" stroke="#7f7f7f" points="730.38,-49 753.62,-49 "/>
<polyline fill="none" stroke="#7f7f7f" points="800.09,-61 800.09,-67 "/>
<polyline fill="none" stroke="#7f7f7f" points="753.62,-79 730.38,-79 "/>
<text text-anchor="middle" x="742" y="-60.3" font-family="Times,serif" font-size="14.00">return 4</text>
</g>
<!-- 1199547644&#45;&gt;1758234217 -->
<g id="edge8" class="edge">
<title>1199547644:s&#45;&gt;1758234217:n</title>
<path fill="none" stroke="lightcoral" d="M821,-167C821,-121.56 758.88,-130.95 744.81,-97.93"/>
<polygon fill="lightcoral" stroke="lightcoral" points="749.93,-96.77 742,-83 739.62,-98.71 749.93,-96.77"/>
<text text-anchor="middle" x="765.5" y="-103" font-family="Times,serif" font-size="10.00" fill="lightcoral">false</text>
</g>
<!-- 1362104876 -->
<g id="node10" class="node">
<title>1362104876</title>
<polygon fill="white" stroke="#7f7f7f" points="906,-82 836.29,-64 906,-46 975.71,-64 906,-82"/>
<polyline fill="none" stroke="#7f7f7f" points="847.91,-67 847.91,-61 "/>
<polyline fill="none" stroke="#7f7f7f" points="894.38,-49 917.62,-49 "/>
<polyline fill="none" stroke="#7f7f7f" points="964.09,-61 964.09,-67 "/>
<polyline fill="none" stroke="#7f7f7f" points="917.62,-79 894.38,-79 "/>
<text text-anchor="middle" x="906" y="-60.3" font-family="Times,serif" font-size="14.00">return 5</text>
</g>
<!-- 1199547644&#45;&gt;1362104876 -->
<g id="edge9" class="edge">
<title>1199547644:s&#45;&gt;1362104876:n</title>
<path fill="none" stroke="lightcoral" d="M821,-167C821,-119.7 888.42,-132.15 903.17,-97.92"/>
<polygon fill="lightcoral" stroke="lightcoral" points="908.36,-98.72 906,-83 898.05,-96.76 908.36,-98.72"/>
<text text-anchor="middle" x="912" y="-103" font-family="Times,serif" font-size="10.00" fill="lightcoral">true</text>
</g>
<!-- 1660909899 -->
<g id="node7" class="node">
<title>1660909899</title>
<polygon fill="white" stroke="#7f7f7f" points="1070,-82 1000.29,-64 1070,-46 1139.71,-64 1070,-82"/>
<polyline fill="none" stroke="#7f7f7f" points="1011.91,-67 1011.91,-61 "/>
<polyline fill="none" stroke="#7f7f7f" points="1058.38,-49 1081.62,-49 "/>
<polyline fill="none" stroke="#7f7f7f" points="1128.09,-61 1128.09,-67 "/>
<polyline fill="none" stroke="#7f7f7f" points="1081.62,-79 1058.38,-79 "/>
<text text-anchor="middle" x="1070" y="-60.3" font-family="Times,serif" font-size="14.00">return 6</text>
</g>
<!-- 638211470&#45;&gt;1660909899 -->
<g id="edge6" class="edge">
<title>638211470:s&#45;&gt;1660909899:n</title>
<path fill="none" stroke="lightcoral" d="M1070,-167C1070,-135.35 1070,-123.83 1070,-98.31"/>
<polygon fill="lightcoral" stroke="lightcoral" points="1075.25,-98 1070,-83 1064.75,-98 1075.25,-98"/>
<text text-anchor="middle" x="1082.5" y="-103" font-family="Times,serif" font-size="10.00" fill="lightcoral">false</text>
</g>
<!-- 47629491 -->
<g id="node8" class="node">
<title>47629491</title>
<polygon fill="white" stroke="#7f7f7f" points="1234,-82 1164.29,-64 1234,-46 1303.71,-64 1234,-82"/>
<polyline fill="none" stroke="#7f7f7f" points="1175.91,-67 1175.91,-61 "/>
<polyline fill="none" stroke="#7f7f7f" points="1222.38,-49 1245.62,-49 "/>
<polyline fill="none" stroke="#7f7f7f" points="1292.09,-61 1292.09,-67 "/>
<polyline fill="none" stroke="#7f7f7f" points="1245.62,-79 1222.38,-79 "/>
<text text-anchor="middle" x="1234" y="-60.3" font-family="Times,serif" font-size="14.00">return 7</text>
</g>
<!-- 638211470&#45;&gt;47629491 -->
<g id="edge7" class="edge">
<title>638211470:s&#45;&gt;47629491:n</title>
<path fill="none" stroke="lightcoral" d="M1070,-167C1070,-90.86 1211.75,-154.47 1231.68,-97.99"/>
<polygon fill="lightcoral" stroke="lightcoral" points="1236.9,-98.63 1234,-83 1226.52,-97.02 1236.9,-98.63"/>
<text text-anchor="middle" x="1240" y="-103" font-family="Times,serif" font-size="10.00" fill="lightcoral">true</text>
</g>
<!-- 1808956679 -->
<g id="node15" class="node">
<title>1808956679</title>
<polygon fill="white" stroke="#7f7f7f" points="86,-82 16.29,-64 86,-46 155.71,-64 86,-82"/>
<polyline fill="none" stroke="#7f7f7f" points="27.91,-67 27.91,-61 "/>
<polyline fill="none" stroke="#7f7f7f" points="74.38,-49 97.62,-49 "/>
<polyline fill="none" stroke="#7f7f7f" points="144.09,-61 144.09,-67 "/>
<polyline fill="none" stroke="#7f7f7f" points="97.62,-79 74.38,-79 "/>
<text text-anchor="middle" x="86" y="-60.3" font-family="Times,serif" font-size="14.00">return 0</text>
</g>
<!-- 836418994&#45;&gt;1808956679 -->
<g id="edge14" class="edge">
<title>836418994:s&#45;&gt;1808956679:n</title>
<path fill="none" stroke="lightcoral" d="M250,-167C250,-90.86 108.25,-154.47 88.32,-97.99"/>
<polygon fill="lightcoral" stroke="lightcoral" points="93.48,-97.02 86,-83 83.1,-98.63 93.48,-97.02"/>
<text text-anchor="middle" x="107.5" y="-103" font-family="Times,serif" font-size="10.00" fill="lightcoral">false</text>
</g>
<!-- 1250752729 -->
<g id="node16" class="node">
<title>1250752729</title>
<polygon fill="white" stroke="#7f7f7f" points="250,-82 180.29,-64 250,-46 319.71,-64 250,-82"/>
<polyline fill="none" stroke="#7f7f7f" points="191.91,-67 191.91,-61 "/>
<polyline fill="none" stroke="#7f7f7f" points="238.38,-49 261.62,-49 "/>
<polyline fill="none" stroke="#7f7f7f" points="308.09,-61 308.09,-67 "/>
<polyline fill="none" stroke="#7f7f7f" points="261.62,-79 238.38,-79 "/>
<text text-anchor="middle" x="250" y="-60.3" font-family="Times,serif" font-size="14.00">return 1</text>
</g>
<!-- 836418994&#45;&gt;1250752729 -->
<g id="edge15" class="edge">
<title>836418994:s&#45;&gt;1250752729:n</title>
<path fill="none" stroke="lightcoral" d="M250,-167C250,-135.35 250,-123.83 250,-98.31"/>
<polygon fill="lightcoral" stroke="lightcoral" points="255.25,-98 250,-83 244.75,-98 255.25,-98"/>
<text text-anchor="middle" x="261" y="-103" font-family="Times,serif" font-size="10.00" fill="lightcoral">true</text>
</g>
<!-- 1509904370 -->
<g id="node13" class="node">
<title>1509904370</title>
<polygon fill="white" stroke="#7f7f7f" points="414,-82 344.29,-64 414,-46 483.71,-64 414,-82"/>
<polyline fill="none" stroke="#7f7f7f" points="355.91,-67 355.91,-61 "/>
<polyline fill="none" stroke="#7f7f7f" points="402.38,-49 425.62,-49 "/>
<polyline fill="none" stroke="#7f7f7f" points="472.09,-61 472.09,-67 "/>
<polyline fill="none" stroke="#7f7f7f" points="425.62,-79 402.38,-79 "/>
<text text-anchor="middle" x="414" y="-60.3" font-family="Times,serif" font-size="14.00">return 2</text>
</g>
<!-- 147649635&#45;&gt;1509904370 -->
<g id="edge12" class="edge">
<title>147649635:s&#45;&gt;1509904370:n</title>
<path fill="none" stroke="lightcoral" d="M493,-167C493,-121.56 430.88,-130.95 416.81,-97.93"/>
<polygon fill="lightcoral" stroke="lightcoral" points="421.93,-96.77 414,-83 411.62,-98.71 421.93,-96.77"/>
<text text-anchor="middle" x="437.5" y="-103" font-family="Times,serif" font-size="10.00" fill="lightcoral">false</text>
</g>
<!-- 1028366054 -->
<g id="node14" class="node">
<title>1028366054</title>
<polygon fill="white" stroke="#7f7f7f" points="578,-82 508.29,-64 578,-46 647.71,-64 578,-82"/>
<polyline fill="none" stroke="#7f7f7f" points="519.91,-67 519.91,-61 "/>
<polyline fill="none" stroke="#7f7f7f" points="566.38,-49 589.62,-49 "/>
<polyline fill="none" stroke="#7f7f7f" points="636.09,-61 636.09,-67 "/>
<polyline fill="none" stroke="#7f7f7f" points="589.62,-79 566.38,-79 "/>
<text text-anchor="middle" x="578" y="-60.3" font-family="Times,serif" font-size="14.00">return 3</text>
</g>
<!-- 147649635&#45;&gt;1028366054 -->
<g id="edge13" class="edge">
<title>147649635:s&#45;&gt;1028366054:n</title>
<path fill="none" stroke="lightcoral" d="M493,-167C493,-119.7 560.42,-132.15 575.17,-97.92"/>
<polygon fill="lightcoral" stroke="lightcoral" points="580.36,-98.72 578,-83 570.05,-96.76 580.36,-98.72"/>
<text text-anchor="middle" x="584" y="-103" font-family="Times,serif" font-size="10.00" fill="lightcoral">true</text>
</g>
</g>
</svg>
